<?xml version="1.0" encoding="UTF-8"?>
<svg width="344px" height="24px" viewBox="0 0 344 24" version="1.1" xmlns="http://www.w3.org/2000/svg" xmlns:xlink="http://www.w3.org/1999/xlink">
    <!-- Generator: Sketch 52.6 (67491) - http://www.bohemiancoding.com/sketch -->
    <title>分组 2</title>
    <desc>Created with Sketch.</desc>
    <g id="页面-1" stroke="none" stroke-width="1" fill="none" fill-rule="evenodd" opacity="0.6">
        <g id="老师任务详情" transform="translate(-15.000000, -328.000000)">
            <g id="分组-11-copy" transform="translate(15.000000, 328.000000)">
                <g id="分组-2" transform="translate(1.000000, 0.000000)">
                    <path d="M303.000042,24 C309.63693,24 315,18.636845 315,12.0000423 C315,5.36307031 309.63693,0 303.000042,0 C296.363155,0 291,5.36307031 291,12.0000423 C291,18.636845 296.363155,24 303.000042,24 M299.581547,17 C299.515475,17 299.482439,16.9328032 299.449487,16.8656065 L294,5.68282447 C294.974305,4.16932565 296.278885,2.89131284 297.847668,2 L301.761325,10.8790628 C301.827396,11.0471822 301.926504,11.080823 302.058647,11.080823 L303.941186,11.080823 C304.073329,11.080823 304.172353,11.0471822 304.238508,10.8790628 L308.152248,2 C309.720948,2.89131284 311.025861,4.16932565 312,5.68282447 L306.55043,16.8656065 C306.517394,16.9328032 306.484275,17 306.418286,17 C306.352131,17 306.319263,16.9328032 306.286143,16.8656065 L304.238508,12.089709 C304.172353,11.9216746 304.073329,11.8879488 303.941186,11.8879488 L302.058647,11.8879488 C301.926504,11.8879488 301.827396,11.9216746 301.761325,12.089709 L299.71369,16.8656065 C299.680654,16.9328032 299.647618,17 299.581547,17 M303.499958,9 C303.433904,9 303.40096,8.9363651 303.36785,8.87273019 L300,1.58838181 C301.089645,1.20665274 302.278288,1 303.499958,1 C304.721545,1 305.910188,1.20665274 307,1.58838181 L303.631983,8.87273019 C303.598956,8.9363651 303.566013,9 303.499958,9 M303,23 C296.956779,23 292,17.9714004 292,11.8826294 C292,10.514343 292.237715,9.21440174 292.696081,8 L299.129663,21.0500449 C299.214476,21.2221608 299.316354,21.3579871 299.520024,21.3579871 C299.72378,21.3579871 299.835949,21.218791 299.910471,21.0500449 L302.864163,14.3626702 C302.898208,14.294325 302.932081,14.225807 303,14.225807 C303.067919,14.225807 303.101792,14.294325 303.135752,14.3626702 L306.089443,21.0500449 C306.164051,21.2186182 306.276306,21.3579871 306.479976,21.3579871 C306.683646,21.3579871 306.785782,21.2216424 306.870337,21.0500449 L313.304005,8 C313.76237,9.21440174 314,10.514343 314,11.8826294 C314,17.9714004 309.043221,23 303,23" id="Fill-1" fill="#B6B6B6"></path>
                    <path d="M319.5,12 L342.091263,12" id="直线-2" stroke="#B6B6B6" stroke-linecap="round" stroke-linejoin="round" fill-rule="nonzero"></path>
                    <path d="M0.103912201,12 L285,12" id="直线-2-copy" stroke="#B6B6B6" stroke-linecap="round" stroke-linejoin="round" fill-rule="nonzero"></path>
                </g>
            </g>
        </g>
    </g>
</svg>