<?xml version="1.0" encoding="UTF-8"?>
<svg width="373px" height="36px" viewBox="0 0 373 36" version="1.1" xmlns="http://www.w3.org/2000/svg" xmlns:xlink="http://www.w3.org/1999/xlink">
    <!-- Generator: Sketch 52.6 (67491) - http://www.bohemiancoding.com/sketch -->
    <title>分组 12</title>
    <desc>Created with Sketch.</desc>
    <g id="页面-1" stroke="none" stroke-width="1" fill="none" fill-rule="evenodd">
        <g id="登录-copy-2" transform="translate(-2.000000, -49.000000)">
            <g id="分组-6">
                <g id="分组-13" transform="translate(3.000000, 49.000000)">
                    <g id="分组-12">
                        <path d="M329,18.5 L479,18.5" id="直线" stroke="#FFFFFF" stroke-width="2" stroke-linecap="round" stroke-linejoin="round" fill-rule="nonzero"></path>
                        <path d="M0,18.5 L253.950074,18.5" id="直线-copy" stroke="#FFFFFF" stroke-width="2" stroke-linecap="round" stroke-linejoin="round" fill-rule="nonzero" transform="translate(127.000000, 18.000000) scale(-1, 1) translate(-127.000000, -18.000000) "></path>
                        <path d="M292.000064,36 C301.955395,36 310,27.9552675 310,18.0000635 C310,8.04460547 301.955395,0 292.000064,0 C282.044732,0 274,8.04460547 274,18.0000635 C274,27.9552675 282.044732,36 292.000064,36 M286.796083,26.1199804 C286.695498,26.1199804 286.645206,26.0195228 286.595041,25.9190653 L278.298974,9.20107386 C279.782215,6.93842935 281.768252,5.02783079 284.1565,3.69533943 L290.114484,16.9693258 C290.215069,17.2206602 290.365945,17.2709525 290.567115,17.2709525 L293.433012,17.2709525 C293.634182,17.2709525 293.784931,17.2206602 293.885643,16.9693258 L299.843754,3.69533943 C302.231875,5.02783079 304.21842,6.93842935 305.701407,9.20107386 L297.405213,25.9190653 C297.354921,26.0195228 297.304502,26.1199804 297.204044,26.1199804 C297.103333,26.1199804 297.053294,26.0195228 297.002875,25.9190653 L293.885643,18.7792128 C293.784931,18.5280054 293.634182,18.4775861 293.433012,18.4775861 L290.567115,18.4775861 C290.365945,18.4775861 290.215069,18.5280054 290.114484,18.7792128 L286.997252,25.9190653 C286.94696,26.0195228 286.896667,26.1199804 286.796083,26.1199804 M292.000064,14.3044701 C291.899479,14.3044701 291.849314,14.2038855 291.798894,14.103301 L286.670479,2.58929031 C288.329743,1.98590998 290.139757,1.65926417 292.000064,1.65926417 C293.860243,1.65926417 295.670257,1.98590998 297.329775,2.58929031 L292.201106,14.103301 C292.150813,14.2038855 292.100648,14.3044701 292.000064,14.3044701 M292.000064,34.3409898 C283.050324,34.3409898 275.709556,26.949676 275.709556,18.0000635 C275.709556,15.9888804 276.061602,14.0781548 276.740421,12.29316 L286.268268,31.474838 C286.393872,31.7278234 286.544748,31.9274685 286.846375,31.9274685 C287.148129,31.9274685 287.314246,31.7228704 287.424609,31.474838 L291.798894,21.6453647 C291.849314,21.5449071 291.899479,21.4441955 292.000064,21.4441955 C292.100648,21.4441955 292.150813,21.5449071 292.201106,21.6453647 L296.575391,31.474838 C296.685881,31.7226164 296.852125,31.9274685 297.153752,31.9274685 C297.455379,31.9274685 297.606636,31.7270614 297.731859,31.474838 L307.259833,12.29316 C307.938652,14.0781548 308.290571,15.9888804 308.290571,18.0000635 C308.290571,26.949676 300.949803,34.3409898 292.000064,34.3409898" id="Fill-1" fill="#FFFFFF"></path>
                    </g>
                </g>
            </g>
        </g>
    </g>
</svg>