<?xml version="1.0" encoding="UTF-8"?>
<svg width="375px" height="36px" viewBox="0 0 375 36" version="1.1" xmlns="http://www.w3.org/2000/svg" xmlns:xlink="http://www.w3.org/1999/xlink">
    <!-- Generator: Sketch 52.6 (67491) - http://www.bohemiancoding.com/sketch -->
    <title>分组 12</title>
    <desc>Created with Sketch.</desc>
    <g id="页面-1" stroke="none" stroke-width="1" fill="none" fill-rule="evenodd">
        <g id="设置" transform="translate(0.000000, -64.000000)">
            <g id="分组-13" transform="translate(0.000000, 64.000000)">
                <g id="分组-14">
                    <g id="分组-12">
                        <path d="M225,18.5 L375,18.5" id="直线" stroke="#FFFFFF" stroke-width="2" stroke-linecap="round" stroke-linejoin="round" fill-rule="nonzero"></path>
                        <path d="M0,18.5 L150,18.5" id="直线-copy" stroke="#FFFFFF" stroke-width="2" stroke-linecap="round" stroke-linejoin="round" fill-rule="nonzero" transform="translate(75.000000, 18.500000) scale(-1, 1) translate(-75.000000, -18.500000) "></path>
                        <path d="M188.000064,36 C197.955395,36 206,27.9552675 206,18.0000635 C206,8.04460547 197.955395,0 188.000064,0 C178.044732,0 170,8.04460547 170,18.0000635 C170,27.9552675 178.044732,36 188.000064,36 M182.796083,26.1199804 C182.695498,26.1199804 182.645206,26.0195228 182.595041,25.9190653 L174.298974,9.20107386 C175.782215,6.93842935 177.768252,5.02783079 180.1565,3.69533943 L186.114484,16.9693258 C186.215069,17.2206602 186.365945,17.2709525 186.567115,17.2709525 L189.433012,17.2709525 C189.634182,17.2709525 189.784931,17.2206602 189.885643,16.9693258 L195.843754,3.69533943 C198.231875,5.02783079 200.21842,6.93842935 201.701407,9.20107386 L193.405213,25.9190653 C193.354921,26.0195228 193.304502,26.1199804 193.204044,26.1199804 C193.103333,26.1199804 193.053294,26.0195228 193.002875,25.9190653 L189.885643,18.7792128 C189.784931,18.5280054 189.634182,18.4775861 189.433012,18.4775861 L186.567115,18.4775861 C186.365945,18.4775861 186.215069,18.5280054 186.114484,18.7792128 L182.997252,25.9190653 C182.94696,26.0195228 182.896667,26.1199804 182.796083,26.1199804 M188.000064,14.3044701 C187.899479,14.3044701 187.849314,14.2038855 187.798894,14.103301 L182.670479,2.58929031 C184.329743,1.98590998 186.139757,1.65926417 188.000064,1.65926417 C189.860243,1.65926417 191.670257,1.98590998 193.329775,2.58929031 L188.201106,14.103301 C188.150813,14.2038855 188.100648,14.3044701 188.000064,14.3044701 M188.000064,34.3409898 C179.050324,34.3409898 171.709556,26.949676 171.709556,18.0000635 C171.709556,15.9888804 172.061602,14.0781548 172.740421,12.29316 L182.268268,31.474838 C182.393872,31.7278234 182.544748,31.9274685 182.846375,31.9274685 C183.148129,31.9274685 183.314246,31.7228704 183.424609,31.474838 L187.798894,21.6453647 C187.849314,21.5449071 187.899479,21.4441955 188.000064,21.4441955 C188.100648,21.4441955 188.150813,21.5449071 188.201106,21.6453647 L192.575391,31.474838 C192.685881,31.7226164 192.852125,31.9274685 193.153752,31.9274685 C193.455379,31.9274685 193.606636,31.7270614 193.731859,31.474838 L203.259833,12.29316 C203.938652,14.0781548 204.290571,15.9888804 204.290571,18.0000635 C204.290571,26.949676 196.949803,34.3409898 188.000064,34.3409898" id="Fill-1" fill="#FFFFFF"></path>
                    </g>
                </g>
            </g>
        </g>
    </g>
</svg>