<?xml version="1.0" encoding="UTF-8"?>
<svg width="44px" height="44px" viewBox="0 0 44 44" version="1.1" xmlns="http://www.w3.org/2000/svg" xmlns:xlink="http://www.w3.org/1999/xlink">
    <!-- Generator: Sketch 52.6 (67491) - http://www.bohemiancoding.com/sketch -->
    <title>分组 8</title>
    <desc>Created with Sketch.</desc>
    <defs>
        <linearGradient x1="50%" y1="0%" x2="50%" y2="100%" id="linearGradient-1">
            <stop stop-color="#FFAA00" offset="0%"></stop>
            <stop stop-color="#FF7100" offset="100%"></stop>
        </linearGradient>
    </defs>
    <g id="页面-1" stroke="none" stroke-width="1" fill="none" fill-rule="evenodd">
        <g id="讲师端首页" transform="translate(-76.000000, -244.000000)" fill-rule="nonzero">
            <g id="分组-3" transform="translate(16.000000, 224.000000)">
                <g id="分组-7" transform="translate(60.000000, 20.000000)">
                    <g id="分组-8">
                        <circle id="椭圆形" fill="url(#linearGradient-1)" cx="22" cy="22" r="22"></circle>
                        <g id="任务" transform="translate(13.000000, 11.000000)" fill="#FFFFFF">
                            <path d="M18.3569231,2.69518717 L15.2,2.69518717 L15.2,6.06417112 L3.50769231,6.06417112 L3.50769231,2.69518717 L0.701538462,2.69518717 C0.292307692,2.69518717 0,3.08823529 0,3.48128342 L0,20.2139037 C0,20.6631016 0.350769231,21 0.76,21 L18.24,21 C18.6492308,21 19,20.6631016 19,20.2139037 L19,3.48128342 C19,3.03208556 18.6492308,2.69518717 18.24,2.69518717 L18.3569231,2.69518717 Z M15.4923077,9.32085561 L8.65230769,17.4064171 C8.71076923,17.5187166 8.53538462,17.5187166 8.41846154,17.4625668 L3.44923077,13.5320856 C3.33230769,13.4759358 3.33230769,13.3074866 3.39076923,13.1951872 L4.20923077,12.184492 C4.26769231,12.0721925 4.44307692,12.0721925 4.56,12.1283422 L8.30153846,15.1604278 L14.1476923,8.19786096 C14.2061538,8.02941176 14.3815385,8.02941176 14.4984615,8.14171123 L15.4338462,8.92780749 C15.6092308,8.98395722 15.6676923,9.09625668 15.4923077,9.32085561 Z M12.3353846,1.68449198 L12.3353846,1.01069519 C12.3353846,0.393048128 11.7507692,0 11.1076923,0 L7.54153846,0 C6.89846154,0 6.31384615,0.393048128 6.31384615,1.01069519 L6.31384615,1.68449198 L4.91076923,1.68449198 L4.91076923,5.05347594 L13.7384615,5.05347594 L13.7384615,1.68449198 L12.3353846,1.68449198 Z M9.35384615,3.70588235 C8.65230769,3.70588235 8.06769231,3.14438503 8.06769231,2.47058824 C8.06769231,1.79679144 8.65230769,1.23529412 9.35384615,1.23529412 C10.0553846,1.23529412 10.64,1.79679144 10.64,2.47058824 C10.64,3.25668449 10.0553846,3.70588235 9.35384615,3.70588235 Z" id="形状"></path>
                        </g>
                    </g>
                </g>
            </g>
        </g>
    </g>
</svg>