<?xml version="1.0" encoding="UTF-8"?>
<svg width="44px" height="44px" viewBox="0 0 44 44" version="1.1" xmlns="http://www.w3.org/2000/svg" xmlns:xlink="http://www.w3.org/1999/xlink">
    <!-- Generator: Sketch 52.6 (67491) - http://www.bohemiancoding.com/sketch -->
    <title>分组 9</title>
    <desc>Created with Sketch.</desc>
    <defs>
        <linearGradient x1="50%" y1="1.53088873%" x2="50%" y2="98.9207009%" id="linearGradient-1">
            <stop stop-color="#69B5FF" offset="0%"></stop>
            <stop stop-color="#1975FF" offset="100%"></stop>
        </linearGradient>
    </defs>
    <g id="页面-1" stroke="none" stroke-width="1" fill="none" fill-rule="evenodd">
        <g id="讲师端首页" transform="translate(-255.000000, -244.000000)" fill-rule="nonzero">
            <g id="分组-4" transform="translate(195.000000, 224.000000)">
                <g id="分组-2" transform="translate(60.000000, 20.000000)">
                    <g id="分组-9">
                        <circle id="椭圆形-copy" fill="url(#linearGradient-1)" cx="22" cy="22" r="22"></circle>
                        <g id="审批" transform="translate(13.000000, 12.000000)" fill="#FFFFFF">
                            <path d="M3.32425743,15.1363544 C3.32425743,14.7650407 3.62114961,14.4646787 3.98817382,14.4646787 L8.64260176,14.4646787 C8.76650165,14.4646787 8.88338834,14.5001545 8.98391089,14.5592809 L9.08910891,14.5592809 L9.27612761,14.3724415 L11.9224422,11.7732456 L3.99051155,11.7732456 C3.62348735,11.7732456 3.32659516,11.4728836 3.32659516,11.1015699 C3.32659516,10.7302562 3.62348735,10.4298942 3.99051155,10.4298942 L13.3320957,10.4298942 L17,6.81135947 L17,0.688231113 C17,0.312187309 16.6890814,0 16.315044,0 L5.66666667,0 L0.811193619,0.0614914397 C0.310918592,0 0,0.437535244 0,0.811213993 L0,19.2444556 C0,19.6181343 0.374037404,20.0556696 0.748074807,19.9941781 L6.47552255,19.9941781 L7.65841584,16.4324047 L7.65841584,16.3709133 C7.65841584,16.2834062 7.72153465,16.0066948 7.75660066,15.8103952 L3.99051155,15.8103952 C3.62348735,15.8080301 3.32425743,15.5076681 3.32425743,15.1363544 Z M3.99051155,6.05454175 L13.2993674,6.05454175 C13.6663916,6.05454175 13.9632838,6.35490379 13.9632838,6.72621748 C13.9632838,7.09753117 13.6663916,7.3978932 13.2993674,7.3978932 L3.99051155,7.3978932 C3.62348735,7.3978932 3.32659516,7.09753117 3.32659516,6.72621748 C3.32425743,6.35490379 3.62348735,6.05454175 3.99051155,6.05454175 Z" id="形状"></path>
                            <path d="M10.4590491,14.8738789 L9.24296372,15.9911743 C9.17807378,15.9911743 9.11558718,16.1230599 9.11558718,16.2549455 L9.11558718,16.3196442 L8.02687829,19.6715301 C7.96198836,19.8034157 8.02687829,19.8681144 8.09176822,19.9353014 C8.15665816,20 8.28403469,20 8.34892463,20 L11.6775379,18.9474033 L11.7424278,18.9474033 C11.8698044,18.9474033 11.9346943,18.8155177 11.9995842,18.8155177 L18.3996544,12.4377272 L15.7079238,9.74526948 L10.4590491,14.8738789 Z M19.8704929,9.94185373 L18.077608,8.16761863 C17.8204516,7.90384735 17.3734321,7.97103438 17.0537891,8.23231725 L16.0924567,9.21772693 L18.781784,11.9126731 L19.7431163,10.9272634 C20.060356,10.6659805 20.060356,10.205625 19.8704929,9.94185373 Z" id="形状"></path>
                        </g>
                    </g>
                </g>
            </g>
        </g>
    </g>
</svg>