<?xml version="1.0" encoding="UTF-8"?>
<svg width="44px" height="44px" viewBox="0 0 44 44" version="1.1" xmlns="http://www.w3.org/2000/svg" xmlns:xlink="http://www.w3.org/1999/xlink">
    <!-- Generator: Sketch 52.6 (67491) - http://www.bohemiancoding.com/sketch -->
    <title>分组 14</title>
    <desc>Created with Sketch.</desc>
    <defs>
        <linearGradient x1="50%" y1="3.80906443%" x2="50%" y2="98.9207009%" id="linearGradient-1">
            <stop stop-color="#5BEF95" offset="0%"></stop>
            <stop stop-color="#08C890" offset="100%"></stop>
        </linearGradient>
    </defs>
    <g id="页面-1" stroke="none" stroke-width="1" fill="none" fill-rule="evenodd">
        <g id="讲师端首页" transform="translate(-76.000000, -381.000000)">
            <g id="分组-5" transform="translate(16.000000, 359.000000)">
                <g id="分组-10" transform="translate(60.000000, 22.000000)">
                    <g id="分组-14">
                        <circle id="椭圆形-copy" fill="url(#linearGradient-1)" fill-rule="nonzero" cx="22" cy="22" r="22"></circle>
                        <path d="M23.0708889,32 L11.76,32 C11.3507692,32 11,31.6631016 11,31.2139037 L11,14.4812834 C11,14.0882353 11.2923077,13.6951872 11.7015385,13.6951872 L14.5076923,13.6951872 L14.5076923,17.0641711 L26.2,17.0641711 L26.2,13.6951872 L29.3569231,13.6951872 L29.24,13.6951872 C29.6492308,13.6951872 30,14.0320856 30,14.4812834 L30,24 C26.1340068,24 23,27.1340068 23,31 C23,31.3395213 23.024172,31.673397 23.0708889,32 Z M26.4923077,20.3208556 C26.6676923,20.0962567 26.6092308,19.9839572 26.4338462,19.9278075 L25.4984615,19.1417112 C25.3815385,19.0294118 25.2061538,19.0294118 25.1476923,19.197861 L19.3015385,26.1604278 L15.56,23.1283422 C15.4430769,23.0721925 15.2676923,23.0721925 15.2092308,23.184492 L14.3907692,24.1951872 C14.3323077,24.3074866 14.3323077,24.4759358 14.4492308,24.5320856 L19.4184615,28.4625668 C19.5353846,28.5187166 19.7107692,28.5187166 19.6523077,28.4064171 L26.4923077,20.3208556 Z M23.3353846,12.684492 L24.7384615,12.684492 L24.7384615,16.0534759 L15.9107692,16.0534759 L15.9107692,12.684492 L17.3138462,12.684492 L17.3138462,12.0106952 C17.3138462,11.3930481 17.8984615,11 18.5415385,11 L22.1076923,11 C22.7507692,11 23.3353846,11.3930481 23.3353846,12.0106952 L23.3353846,12.684492 Z M20.3538462,14.7058824 C21.0553846,14.7058824 21.64,14.2566845 21.64,13.4705882 C21.64,12.7967914 21.0553846,12.2352941 20.3538462,12.2352941 C19.6523077,12.2352941 19.0676923,12.7967914 19.0676923,13.4705882 C19.0676923,14.144385 19.6523077,14.7058824 20.3538462,14.7058824 Z" id="合并形状" fill="#FFFFFF" fill-rule="nonzero"></path>
                        <g id="统计分析-(1)" transform="translate(25.000000, 26.000000)" fill="#FFFFFF">
                            <path d="M9.99976398,5.3659957 C9.8045531,8.00640797 7.58592738,10.0375458 4.93858467,9.99947347 C2.2439436,9.92821599 0.0753285884,7.76244518 0.000532627969,5.06789783 C-0.0377541114,2.419303 1.99258334,0.198708359 4.63400665,0.000234037916 C4.73361479,-0.00334275155 4.83030945,0.0342066076 4.90139861,0.104070149 C4.97248777,0.173933691 5.01171294,0.269960814 5.00986888,0.369616175 L5.00986888,4.64667258 C5.00983616,4.83743693 5.16259771,4.9930809 5.35332919,4.99661356 L9.6433429,4.99661356 C9.7401607,4.99654953 9.83283869,5.03587485 9.900066,5.10554684 C9.96729331,5.17521883 10.0032847,5.26924184 9.99976398,5.3659957 Z" id="路径"></path>
                            <path d="M9.99786527,3.47428524 C9.74762216,1.65901799 8.33466088,0.238941479 6.54840402,0.00745357859 C6.41317421,-0.0172314182 6.27413409,0.0200682695 6.16841758,0.109390881 C6.06270108,0.198713493 6.00107571,0.330961272 6,0.470814334 L6,3.68642631 C6.00299157,3.85998573 6.14207061,3.99908196 6.31259029,3.99905525 L9.49881761,3.99905525 C9.63657959,4.00786011 9.77121587,3.95478644 9.86722471,3.85382902 C9.96323356,3.75287161 10.0109768,3.61416537 9.99786527,3.47428524 Z" id="路径"></path>
                        </g>
                    </g>
                </g>
            </g>
        </g>
    </g>
</svg>