<?xml version="1.0" encoding="UTF-8"?>
<svg width="24px" height="24px" viewBox="0 0 24 24" version="1.1" xmlns="http://www.w3.org/2000/svg" xmlns:xlink="http://www.w3.org/1999/xlink">
    <!-- Generator: Sketch 52.6 (67491) - http://www.bohemiancoding.com/sketch -->
    <title>分组</title>
    <desc>Created with Sketch.</desc>
    <g id="页面-1" stroke="none" stroke-width="1" fill="none" fill-rule="evenodd">
        <g id="设置" transform="translate(-287.000000, -621.000000)" fill-rule="nonzero">
            <g id="tab" transform="translate(0.000000, 595.000000)">
                <g id="分组-2" transform="translate(287.000000, 26.000000)">
                    <g id="分组">
                        <rect id="矩形" x="0" y="0" width="24" height="24"></rect>
                        <path d="M12.5,17 C8.91014913,17 6,14.0898509 6,10.5 C6,6.91014913 8.91014913,4 12.5,4 C16.0898509,4 19,6.91014913 19,10.5 C19,14.0898509 16.0898509,17 12.5,17 Z M8.33153148,20 C8.05538911,20 7.83153148,19.7761424 7.83153148,19.5 C7.83153148,19.2238576 8.05538911,19 8.33153148,19 L17,19 C17.2761424,19 17.5,19.2238576 17.5,19.5 C17.5,19.7761424 17.2761424,20 17,20 L8.33153148,20 Z M15.2115541,11.7854538 C14.7181357,12.824124 13.6702226,13.5 12.5,13.5 C11.3297774,13.5 10.2818643,12.824124 9.7884459,11.7854538 C9.66995533,11.5360253 9.37169796,11.4298791 9.12226942,11.5483697 C8.87284088,11.6668603 8.76669469,11.9651176 8.88518526,12.2145462 C9.54274267,13.5987371 10.9401074,14.5 12.5,14.5 C14.0598926,14.5 15.4572573,13.5987371 16.1148147,12.2145462 C16.2333053,11.9651176 16.1271591,11.6668603 15.8777306,11.5483697 C15.628302,11.4298791 15.3300447,11.5360253 15.2115541,11.7854538 Z" id="合并形状" fill="#003366"></path>
                    </g>
                </g>
            </g>
        </g>
    </g>
</svg>