<?xml version="1.0" encoding="UTF-8"?>
<svg width="24px" height="24px" viewBox="0 0 24 24" version="1.1" xmlns="http://www.w3.org/2000/svg" xmlns:xlink="http://www.w3.org/1999/xlink">
    <!-- Generator: Sketch 52.6 (67491) - http://www.bohemiancoding.com/sketch -->
    <title>分组</title>
    <desc>Created with Sketch.</desc>
    <g id="页面-1" stroke="none" stroke-width="1" fill="none" fill-rule="evenodd">
        <g id="设置" transform="translate(-64.000000, -621.000000)" fill-rule="nonzero">
            <g id="tab" transform="translate(0.000000, 595.000000)">
                <g id="分组-2" transform="translate(64.000000, 26.000000)">
                    <g id="分组">
                        <rect id="矩形" x="0" y="0" width="24" height="24"></rect>
                        <g id="分组-11" transform="translate(4.000000, 3.000000)" stroke="#003366">
                            <path d="M4,8.55 L9.94234394,8.55" id="直线-2" stroke-linecap="round" stroke-linejoin="round"></path>
                            <path d="M4,12.15 L6.97117197,12.15" id="直线-2-copy" stroke-linecap="round" stroke-linejoin="round"></path>
                            <path d="M1.8,2.3 C1.08202983,2.3 0.5,2.88202983 0.5,3.6 L0.5,16.2 C0.5,16.9179702 1.08202983,17.5 1.8,17.5 L8.8,17.5 C12.5003078,17.5 15.5,14.5003078 15.5,10.8 L15.5,3.6 C15.5,2.88202983 14.9179702,2.3 14.2,2.3 L1.8,2.3 Z" id="矩形"></path>
                            <path d="M5.44444444,0.45 L5.44444444,3.79005172" id="直线" stroke-linecap="round" stroke-linejoin="round"></path>
                            <path d="M11.4444444,0.45 L11.4444444,3.79005172" id="直线-copy" stroke-linecap="round" stroke-linejoin="round"></path>
                        </g>
                    </g>
                </g>
            </g>
        </g>
    </g>
</svg>