<?xml version="1.0" encoding="UTF-8"?>
<svg width="24px" height="24px" viewBox="0 0 24 24" version="1.1" xmlns="http://www.w3.org/2000/svg" xmlns:xlink="http://www.w3.org/1999/xlink">
    <!-- Generator: Sketch 52.6 (67491) - http://www.bohemiancoding.com/sketch -->
    <title>分组 11</title>
    <desc>Created with Sketch.</desc>
    <g id="页面-1" stroke="none" stroke-width="1" fill="none" fill-rule="evenodd">
        <g id="我的任务" transform="translate(-64.000000, -621.000000)" fill="#003366" fill-rule="nonzero">
            <g id="tab" transform="translate(0.000000, 589.000000)">
                <g id="任务" transform="translate(64.000000, 32.000000)">
                    <g id="分组-12">
                        <g id="分组-11" transform="translate(4.000000, 2.000000)">
                            <path d="M1.8,2.8 L14.2,2.8 C15.1941125,2.8 16,3.60588745 16,4.6 L16,11.8 C16,15.7764502 12.7764502,19 8.8,19 L1.8,19 C0.80588745,19 -3.22345535e-16,18.1941125 -4.4408921e-16,17.2 L-2.22044605e-16,4.6 C-3.4378828e-16,3.60588745 0.80588745,2.8 1.8,2.8 Z M4,10.05 L9.94234394,10.05 C10.2184863,10.05 10.4423439,9.82614237 10.4423439,9.55 C10.4423439,9.27385763 10.2184863,9.05 9.94234394,9.05 L4,9.05 C3.72385763,9.05 3.5,9.27385763 3.5,9.55 C3.5,9.82614237 3.72385763,10.05 4,10.05 Z M4,13.65 L6.97117197,13.65 C7.24731434,13.65 7.47117197,13.4261424 7.47117197,13.15 C7.47117197,12.8738576 7.24731434,12.65 6.97117197,12.65 L4,12.65 C3.72385763,12.65 3.5,12.8738576 3.5,13.15 C3.5,13.4261424 3.72385763,13.65 4,13.65 Z" id="合并形状"></path>
                            <path d="M4.94444444,1.45 C4.94444444,1.17385763 5.16830207,0.95 5.44444444,0.95 C5.72058682,0.95 5.94444444,1.17385763 5.94444444,1.45 L5.94444444,4.79005172 C5.94444444,5.06619409 5.72058682,5.29005172 5.44444444,5.29005172 C5.16830207,5.29005172 4.94444444,5.06619409 4.94444444,4.79005172 L4.94444444,1.45 Z" id="直线"></path>
                            <path d="M10.9444444,1.45 C10.9444444,1.17385763 11.1683021,0.95 11.4444444,0.95 C11.7205868,0.95 11.9444444,1.17385763 11.9444444,1.45 L11.9444444,4.79005172 C11.9444444,5.06619409 11.7205868,5.29005172 11.4444444,5.29005172 C11.1683021,5.29005172 10.9444444,5.06619409 10.9444444,4.79005172 L10.9444444,1.45 Z" id="直线-copy"></path>
                        </g>
                    </g>
                </g>
            </g>
        </g>
    </g>
</svg>